<svg width="20" height="20" viewBox="0 0 20 20" fill="none" xmlns="http://www.w3.org/2000/svg">
<mask id="mask0_208_735" style="mask-type:alpha" maskUnits="userSpaceOnUse" x="0" y="0" width="20" height="20">
<rect width="20" height="20" fill="#D9D9D9"/>
</mask>
<g mask="url(#mask0_208_735)">
<path d="M4.4231 17.0826C4.00751 17.0826 3.65254 16.9355 3.35821 16.6411C3.06386 16.3468 2.91669 15.9918 2.91669 15.5762V4.42243C2.91669 4.00684 3.06386 3.65187 3.35821 3.35754C3.65254 3.06319 4.00751 2.91602 4.4231 2.91602H15.5769C15.9925 2.91602 16.3475 3.06319 16.6418 3.35754C16.9361 3.65187 17.0833 4.00684 17.0833 4.42243V15.5762C17.0833 15.9918 16.9361 16.3468 16.6418 16.6411C16.3475 16.9355 15.9925 17.0826 15.5769 17.0826H4.4231ZM8.54169 15.8327V10.6243H4.16667V15.5762C4.16667 15.651 4.19071 15.7125 4.23879 15.7605C4.28687 15.8086 4.34831 15.8327 4.4231 15.8327H8.54169ZM9.79165 15.8327H15.5769C15.6517 15.8327 15.7131 15.8086 15.7612 15.7605C15.8093 15.7125 15.8333 15.651 15.8333 15.5762V10.6243H9.79165V15.8327ZM4.16667 9.37435H15.8333V4.42243C15.8333 4.34764 15.8093 4.2862 15.7612 4.23812C15.7131 4.19004 15.6517 4.166 15.5769 4.166H4.4231C4.34831 4.166 4.28687 4.19004 4.23879 4.23812C4.19071 4.2862 4.16667 4.34764 4.16667 4.42243V9.37435Z" fill="#0275FF"/>
</g>
</svg>
