<svg width="145" height="29" viewBox="0 0 145 29" fill="none" xmlns="http://www.w3.org/2000/svg">
<path fill-rule="evenodd" clip-rule="evenodd" d="M4.19918 28.4917C5.31928 29.3332 6.90876 29.1064 7.74937 27.9851L10.7108 24.0351C11.1215 23.4872 11.3433 23.1913 11.3704 23.1544C13.3301 20.488 13.9654 17.3728 13.0587 14.528C12.152 11.6832 9.83167 9.51196 6.69148 8.47438C6.64806 8.46004 6.13772 8.29679 5.17006 7.98726L4.93328 7.91153C4.41679 7.74632 3.8929 7.57245 3.36388 7.38964C2.04009 6.93218 0.596484 7.63559 0.139495 8.96075C-0.317494 10.2859 0.385187 11.731 1.70898 12.1885C2.27663 12.3846 2.83766 12.5708 3.38961 12.7474L3.4102 12.754C3.96789 12.9323 4.3868 13.0663 4.671 13.1573C4.81489 13.2033 4.92389 13.2382 4.99876 13.2622C5.03995 13.2754 5.06693 13.2841 5.08307 13.2893C5.10015 13.2948 5.10508 13.2963 5.10186 13.2953C6.938 13.902 7.88602 15.0007 8.2272 16.0711C8.56839 17.1416 8.43121 18.5869 7.28537 20.146C7.28684 20.144 7.28606 20.145 7.28193 20.1505C7.27615 20.1583 7.2638 20.1748 7.24186 20.2041C7.20939 20.2475 7.16262 20.3099 7.10104 20.3921C6.97913 20.5548 6.80039 20.7932 6.56218 21.1109L3.69313 24.9378C2.85251 26.0591 3.07908 27.6502 4.19918 28.4917Z" fill="url(#paint0_linear_438_905)"/>
<path d="M15.5361 3.625C15.5361 5.62703 13.9132 7.25 11.9111 7.25C9.9091 7.25 8.28613 5.62703 8.28613 3.625C8.28613 1.62297 9.9091 0 11.9111 0C13.9132 0 15.5361 1.62297 15.5361 3.625Z" fill="url(#paint1_linear_438_905)"/>
<g style="mix-blend-mode:multiply">
<path fill-rule="evenodd" clip-rule="evenodd" d="M19.6235 28.4949C18.4994 29.334 16.9073 29.1039 16.0674 27.9809L13.1025 24.0165C12.6922 23.4679 12.4706 23.1717 12.4436 23.1348C10.4897 20.4698 9.85591 17.3609 10.7639 14.521C11.6719 11.681 13.9923 9.51483 17.1307 8.47495C17.1741 8.46057 17.6863 8.29625 18.6576 7.98463L18.8937 7.90886C19.4052 7.74478 19.9238 7.57218 20.4475 7.39076C21.7733 6.93151 23.2207 7.63296 23.6804 8.9575C24.1401 10.282 23.438 11.7281 22.1122 12.1873C21.5499 12.3821 20.9942 12.567 20.4474 12.7425C19.8778 12.9252 19.4508 13.0622 19.1623 13.1548C19.018 13.2011 18.9087 13.2362 18.8336 13.2603C18.7486 13.2877 18.724 13.2957 18.7302 13.2936C16.8927 13.9025 15.9455 14.9989 15.6044 16.0657C15.2633 17.1325 15.3989 18.5745 16.5429 20.1349C16.5412 20.1325 16.5426 20.1344 16.5489 20.1428C16.5554 20.1515 16.5672 20.1674 16.5864 20.1931C16.6188 20.2365 16.6655 20.299 16.727 20.3812C16.8499 20.5456 17.0307 20.7874 17.272 21.1101L20.138 24.9421C20.9779 26.0651 20.7476 27.6558 19.6235 28.4949Z" fill="url(#paint2_linear_438_905)"/>
</g>
<path d="M36.3 23L41.9 8.88H44.74L50.28 23H46.96L42.72 11.28H43.86L39.56 23H36.3ZM39.48 20.44V17.88H47.18V20.44H39.48ZM55.8425 23.22C54.8425 23.22 53.9358 23 53.1225 22.56C52.3092 22.12 51.6692 21.5133 51.2025 20.74C50.7358 19.9667 50.5025 19.1 50.5025 18.14C50.5025 17.1667 50.7358 16.3 51.2025 15.54C51.6825 14.7667 52.3292 14.16 53.1425 13.72C53.9558 13.28 54.8692 13.06 55.8825 13.06C56.6425 13.06 57.3358 13.1933 57.9625 13.46C58.6025 13.7133 59.1692 14.1 59.6625 14.62L57.7025 16.58C57.4758 16.3267 57.2092 16.14 56.9025 16.02C56.6092 15.9 56.2692 15.84 55.8825 15.84C55.4425 15.84 55.0492 15.94 54.7025 16.14C54.3692 16.3267 54.1025 16.5933 53.9025 16.94C53.7158 17.2733 53.6225 17.6667 53.6225 18.12C53.6225 18.5733 53.7158 18.9733 53.9025 19.32C54.1025 19.6667 54.3758 19.94 54.7225 20.14C55.0692 20.34 55.4558 20.44 55.8825 20.44C56.2825 20.44 56.6358 20.3733 56.9425 20.24C57.2625 20.0933 57.5358 19.8933 57.7625 19.64L59.7025 21.6C59.1958 22.1333 58.6225 22.54 57.9825 22.82C57.3425 23.0867 56.6292 23.22 55.8425 23.22ZM65.53 23.22C64.53 23.22 63.6233 23 62.81 22.56C61.9967 22.12 61.3567 21.5133 60.89 20.74C60.4233 19.9667 60.19 19.1 60.19 18.14C60.19 17.1667 60.4233 16.3 60.89 15.54C61.37 14.7667 62.0167 14.16 62.83 13.72C63.6433 13.28 64.5567 13.06 65.57 13.06C66.33 13.06 67.0233 13.1933 67.65 13.46C68.29 13.7133 68.8567 14.1 69.35 14.62L67.39 16.58C67.1633 16.3267 66.8967 16.14 66.59 16.02C66.2967 15.9 65.9567 15.84 65.57 15.84C65.13 15.84 64.7367 15.94 64.39 16.14C64.0567 16.3267 63.79 16.5933 63.59 16.94C63.4033 17.2733 63.31 17.6667 63.31 18.12C63.31 18.5733 63.4033 18.9733 63.59 19.32C63.79 19.6667 64.0633 19.94 64.41 20.14C64.7567 20.34 65.1433 20.44 65.57 20.44C65.97 20.44 66.3233 20.3733 66.63 20.24C66.95 20.0933 67.2233 19.8933 67.45 19.64L69.39 21.6C68.8833 22.1333 68.31 22.54 67.67 22.82C67.03 23.0867 66.3167 23.22 65.53 23.22ZM75.3175 23.22C74.2642 23.22 73.3242 23.0067 72.4975 22.58C71.6842 22.14 71.0442 21.5333 70.5775 20.76C70.1108 19.9867 69.8775 19.1133 69.8775 18.14C69.8775 17.1667 70.1042 16.3 70.5575 15.54C71.0242 14.7667 71.6508 14.16 72.4375 13.72C73.2242 13.28 74.1108 13.06 75.0975 13.06C76.0575 13.06 76.9042 13.2667 77.6375 13.68C78.3708 14.0933 78.9442 14.6667 79.3575 15.4C79.7842 16.1333 79.9975 16.9733 79.9975 17.92C79.9975 18.0933 79.9842 18.28 79.9575 18.48C79.9442 18.6667 79.9108 18.8867 79.8575 19.14L71.4775 19.16V17.06L78.5575 17.04L77.2375 17.92C77.2242 17.36 77.1375 16.9 76.9775 16.54C76.8175 16.1667 76.5775 15.8867 76.2575 15.7C75.9508 15.5 75.5708 15.4 75.1175 15.4C74.6375 15.4 74.2175 15.5133 73.8575 15.74C73.5108 15.9533 73.2375 16.26 73.0375 16.66C72.8508 17.06 72.7575 17.5467 72.7575 18.12C72.7575 18.6933 72.8575 19.1867 73.0575 19.6C73.2708 20 73.5642 20.3133 73.9375 20.54C74.3242 20.7533 74.7775 20.86 75.2975 20.86C75.7775 20.86 76.2108 20.78 76.5975 20.62C76.9842 20.4467 77.3242 20.1933 77.6175 19.86L79.2975 21.54C78.8175 22.1 78.2375 22.52 77.5575 22.8C76.8775 23.08 76.1308 23.22 75.3175 23.22ZM85.0145 23.24C84.4412 23.24 83.8745 23.1667 83.3145 23.02C82.7679 22.8733 82.2545 22.6667 81.7745 22.4C81.3079 22.12 80.9079 21.8 80.5745 21.44L82.3145 19.68C82.6345 20.0267 83.0145 20.3 83.4545 20.5C83.8945 20.6867 84.3745 20.78 84.8945 20.78C85.2545 20.78 85.5279 20.7267 85.7145 20.62C85.9145 20.5133 86.0145 20.3667 86.0145 20.18C86.0145 19.94 85.8945 19.76 85.6545 19.64C85.4279 19.5067 85.1345 19.3933 84.7745 19.3C84.4145 19.1933 84.0345 19.08 83.6345 18.96C83.2345 18.84 82.8545 18.6733 82.4945 18.46C82.1345 18.2467 81.8412 17.9533 81.6145 17.58C81.3879 17.1933 81.2745 16.7067 81.2745 16.12C81.2745 15.4933 81.4345 14.9533 81.7545 14.5C82.0745 14.0333 82.5279 13.6667 83.1145 13.4C83.7012 13.1333 84.3879 13 85.1745 13C86.0012 13 86.7612 13.1467 87.4545 13.44C88.1612 13.72 88.7345 14.14 89.1745 14.7L87.4345 16.46C87.1279 16.1 86.7812 15.8467 86.3945 15.7C86.0212 15.5533 85.6545 15.48 85.2945 15.48C84.9479 15.48 84.6879 15.5333 84.5145 15.64C84.3412 15.7333 84.2545 15.8733 84.2545 16.06C84.2545 16.26 84.3679 16.42 84.5945 16.54C84.8212 16.66 85.1145 16.7667 85.4745 16.86C85.8345 16.9533 86.2145 17.0667 86.6145 17.2C87.0145 17.3333 87.3945 17.5133 87.7545 17.74C88.1145 17.9667 88.4079 18.2733 88.6345 18.66C88.8612 19.0333 88.9745 19.5267 88.9745 20.14C88.9745 21.0867 88.6145 21.84 87.8945 22.4C87.1879 22.96 86.2279 23.24 85.0145 23.24ZM94.1747 23.24C93.6014 23.24 93.0347 23.1667 92.4747 23.02C91.928 22.8733 91.4147 22.6667 90.9347 22.4C90.468 22.12 90.068 21.8 89.7347 21.44L91.4747 19.68C91.7947 20.0267 92.1747 20.3 92.6147 20.5C93.0547 20.6867 93.5347 20.78 94.0547 20.78C94.4147 20.78 94.688 20.7267 94.8747 20.62C95.0747 20.5133 95.1747 20.3667 95.1747 20.18C95.1747 19.94 95.0547 19.76 94.8147 19.64C94.588 19.5067 94.2947 19.3933 93.9347 19.3C93.5747 19.1933 93.1947 19.08 92.7947 18.96C92.3947 18.84 92.0147 18.6733 91.6547 18.46C91.2947 18.2467 91.0014 17.9533 90.7747 17.58C90.548 17.1933 90.4347 16.7067 90.4347 16.12C90.4347 15.4933 90.5947 14.9533 90.9147 14.5C91.2347 14.0333 91.688 13.6667 92.2747 13.4C92.8614 13.1333 93.548 13 94.3347 13C95.1614 13 95.9214 13.1467 96.6147 13.44C97.3214 13.72 97.8947 14.14 98.3347 14.7L96.5947 16.46C96.288 16.1 95.9414 15.8467 95.5547 15.7C95.1814 15.5533 94.8147 15.48 94.4547 15.48C94.108 15.48 93.848 15.5333 93.6747 15.64C93.5014 15.7333 93.4147 15.8733 93.4147 16.06C93.4147 16.26 93.528 16.42 93.7547 16.54C93.9814 16.66 94.2747 16.7667 94.6347 16.86C94.9947 16.9533 95.3747 17.0667 95.7747 17.2C96.1747 17.3333 96.5547 17.5133 96.9147 17.74C97.2747 17.9667 97.568 18.2733 97.7947 18.66C98.0214 19.0333 98.1347 19.5267 98.1347 20.14C98.1347 21.0867 97.7747 21.84 97.0547 22.4C96.348 22.96 95.388 23.24 94.1747 23.24ZM101.595 23V21.28H105.455C106.482 21.28 107.382 21.06 108.155 20.62C108.928 20.1667 109.528 19.5467 109.955 18.76C110.395 17.9733 110.615 17.0667 110.615 16.04C110.615 15.0267 110.395 14.1267 109.955 13.34C109.515 12.5533 108.908 11.94 108.135 11.5C107.362 11.06 106.468 10.84 105.455 10.84H101.615V9.12H105.495C106.508 9.12 107.442 9.29333 108.295 9.64C109.162 9.98667 109.908 10.4733 110.535 11.1C111.175 11.7267 111.668 12.46 112.015 13.3C112.375 14.14 112.555 15.06 112.555 16.06C112.555 17.0467 112.375 17.9667 112.015 18.82C111.668 19.66 111.182 20.3933 110.555 21.02C109.928 21.6467 109.182 22.1333 108.315 22.48C107.462 22.8267 106.535 23 105.535 23H101.595ZM100.355 23V9.12H102.235V23H100.355ZM118.88 23.2C118.013 23.2 117.226 22.9867 116.52 22.56C115.813 22.12 115.253 21.5267 114.84 20.78C114.44 20.0333 114.24 19.1933 114.24 18.26C114.24 17.3267 114.44 16.4867 114.84 15.74C115.253 14.9933 115.806 14.4 116.5 13.96C117.206 13.52 118 13.3 118.88 13.3C119.6 13.3 120.24 13.4533 120.8 13.76C121.373 14.0533 121.833 14.4667 122.18 15C122.526 15.52 122.72 16.1267 122.76 16.82V19.68C122.72 20.36 122.526 20.9667 122.18 21.5C121.846 22.0333 121.393 22.4533 120.82 22.76C120.26 23.0533 119.613 23.2 118.88 23.2ZM119.18 21.5C120.073 21.5 120.793 21.2 121.34 20.6C121.886 19.9867 122.16 19.2067 122.16 18.26C122.16 17.6067 122.033 17.04 121.78 16.56C121.54 16.0667 121.193 15.6867 120.74 15.42C120.286 15.14 119.76 15 119.16 15C118.56 15 118.026 15.14 117.56 15.42C117.106 15.7 116.746 16.0867 116.48 16.58C116.226 17.06 116.1 17.6133 116.1 18.24C116.1 18.88 116.226 19.4467 116.48 19.94C116.746 20.42 117.113 20.8 117.58 21.08C118.046 21.36 118.58 21.5 119.18 21.5ZM122.04 23V20.44L122.38 18.12L122.04 15.82V13.5H123.86V23H122.04ZM129.5 23.2C128.967 23.2 128.46 23.1333 127.98 23C127.513 22.8533 127.08 22.6533 126.68 22.4C126.28 22.1333 125.933 21.82 125.64 21.46L126.8 20.3C127.147 20.7267 127.547 21.0467 128 21.26C128.453 21.46 128.96 21.56 129.52 21.56C130.08 21.56 130.513 21.4667 130.82 21.28C131.127 21.08 131.28 20.8067 131.28 20.46C131.28 20.1133 131.153 19.8467 130.9 19.66C130.66 19.46 130.347 19.3 129.96 19.18C129.573 19.0467 129.16 18.92 128.72 18.8C128.293 18.6667 127.887 18.5 127.5 18.3C127.113 18.1 126.793 17.8267 126.54 17.48C126.3 17.1333 126.18 16.6733 126.18 16.1C126.18 15.5267 126.32 15.0333 126.6 14.62C126.88 14.1933 127.267 13.8667 127.76 13.64C128.267 13.4133 128.873 13.3 129.58 13.3C130.327 13.3 130.987 13.4333 131.56 13.7C132.147 13.9533 132.627 14.34 133 14.86L131.84 16.02C131.573 15.6733 131.24 15.4067 130.84 15.22C130.453 15.0333 130.013 14.94 129.52 14.94C129 14.94 128.6 15.0333 128.32 15.22C128.053 15.3933 127.92 15.64 127.92 15.96C127.92 16.28 128.04 16.5267 128.28 16.7C128.52 16.8733 128.833 17.02 129.22 17.14C129.62 17.26 130.033 17.3867 130.46 17.52C130.887 17.64 131.293 17.8067 131.68 18.02C132.067 18.2333 132.38 18.52 132.62 18.88C132.873 19.24 133 19.7133 133 20.3C133 21.1933 132.68 21.9 132.04 22.42C131.413 22.94 130.567 23.2 129.5 23.2ZM141.735 23V17.46C141.735 16.74 141.509 16.1467 141.055 15.68C140.602 15.2133 140.015 14.98 139.295 14.98C138.815 14.98 138.389 15.0867 138.015 15.3C137.642 15.5133 137.349 15.8067 137.135 16.18C136.922 16.5533 136.815 16.98 136.815 17.46L136.075 17.04C136.075 16.32 136.235 15.68 136.555 15.12C136.875 14.56 137.322 14.12 137.895 13.8C138.469 13.4667 139.115 13.3 139.835 13.3C140.555 13.3 141.189 13.46 141.735 13.78C142.295 14.1 142.735 14.5467 143.055 15.12C143.375 15.6933 143.535 16.3533 143.535 17.1V23H141.735ZM135.015 23V8.72H136.815V23H135.015Z" fill="#0275FF"/>
<defs>
<linearGradient id="paint0_linear_438_905" x1="6.12576" y1="26.3964" x2="-2.9966" y2="22.3913" gradientUnits="userSpaceOnUse">
<stop stop-color="#17ACFF"/>
<stop offset="1" stop-color="#4DD78A"/>
</linearGradient>
<linearGradient id="paint1_linear_438_905" x1="11.9111" y1="0" x2="11.9111" y2="7.25" gradientUnits="userSpaceOnUse">
<stop stop-color="#1EB2F1"/>
<stop offset="1" stop-color="#4ED88B"/>
</linearGradient>
<linearGradient id="paint2_linear_438_905" x1="17.6992" y1="26.3964" x2="26.8066" y2="22.4074" gradientUnits="userSpaceOnUse">
<stop stop-color="#17ACFF"/>
<stop offset="1" stop-color="#4DD78A"/>
</linearGradient>
</defs>
</svg>
